<svg xmlns="http://www.w3.org/2000/svg" xmlns:xlink="http://www.w3.org/1999/xlink" width="40" zoomAndPan="magnify" viewBox="0 0 30 30.000001" height="40" preserveAspectRatio="xMidYMid meet" version="1.0"><defs><clipPath id="85c40f7d3b"><path d="M 6.050781 0 L 24 0 L 24 6 L 6.050781 6 Z M 6.050781 0 " clip-rule="nonzero"/></clipPath></defs><g clip-path="url(#85c40f7d3b)"><path fill="#8047f8" d="M 23.628906 2.976562 C 23.394531 2.617188 23.050781 2.605469 22.65625 2.59375 C 22.613281 2.59375 22.566406 2.59375 22.523438 2.589844 C 22.488281 2.589844 22.449219 2.589844 22.410156 2.589844 C 22.25 2.59375 22.066406 2.59375 21.972656 2.460938 C 21.863281 2.308594 21.875 2.007812 21.882812 1.761719 C 21.882812 1.683594 21.886719 1.609375 21.886719 1.546875 C 21.871094 0.976562 21.839844 0.367188 21.617188 0.160156 C 21.449219 0.0078125 20.949219 0.03125 20.488281 0.0507812 C 20.339844 0.0546875 20.195312 0.0625 20.066406 0.0625 L 10.257812 0.0625 C 10.0625 0.0625 9.855469 0.046875 9.652344 0.03125 C 9.253906 0 8.871094 -0.03125 8.601562 0.0625 C 8.207031 0.195312 8.179688 0.90625 8.152344 1.570312 L 8.152344 1.605469 C 8.132812 2.15625 7.996094 2.582031 7.542969 2.539062 C 7.015625 2.492188 6.492188 2.476562 6.257812 2.949219 C 5.976562 3.515625 6.035156 4.101562 6.136719 5.160156 C 6.152344 5.308594 6.167969 5.46875 6.183594 5.640625 L 23.78125 5.640625 C 23.789062 5.515625 23.800781 5.394531 23.8125 5.269531 C 23.894531 4.320312 23.964844 3.492188 23.628906 2.976562 Z M 23.628906 2.976562 " fill-opacity="1" fill-rule="nonzero"/></g><path fill="#8047f8" d="M 7.554688 6.6875 C 7.828125 10.40625 8.101562 14.132812 8.371094 17.855469 L 8.371094 17.859375 C 8.519531 19.878906 8.667969 21.902344 8.816406 23.921875 L 9.378906 23.921875 C 9.414062 24.238281 9.460938 24.628906 9.503906 25.042969 C 9.597656 25.878906 9.703125 26.800781 9.789062 27.367188 L 9.851562 27.367188 C 10.425781 27.160156 14.378906 25.46875 14.378906 18.742188 C 14.378906 18.722656 14.378906 18.703125 14.382812 18.683594 L 13.40625 18.683594 C 13.355469 18.683594 13.3125 18.667969 13.273438 18.640625 C 13.238281 18.609375 13.210938 18.570312 13.199219 18.523438 C 13.101562 18.289062 13.027344 18.046875 12.96875 17.800781 C 12.394531 18.125 11.9375 18.621094 11.664062 19.21875 C 11.40625 18.605469 11.371094 17.925781 11.570312 17.292969 C 11.765625 16.660156 12.179688 16.117188 12.742188 15.757812 C 12.75 13.792969 13.484375 11.902344 14.808594 10.4375 L 14.828125 10.417969 C 14.867188 10.386719 14.917969 10.367188 14.96875 10.367188 C 15 10.367188 15.027344 10.375 15.054688 10.386719 C 15.082031 10.398438 15.105469 10.414062 15.125 10.4375 C 16.464844 11.902344 17.195312 13.8125 17.175781 15.789062 C 17.746094 16.140625 18.171875 16.683594 18.367188 17.316406 C 18.566406 17.953125 18.523438 18.640625 18.25 19.246094 C 17.976562 18.648438 17.519531 18.152344 16.945312 17.832031 C 16.910156 18.070312 16.84375 18.304688 16.75 18.527344 C 16.71875 18.621094 16.65625 18.683594 16.589844 18.683594 L 15.550781 18.683594 C 15.550781 18.695312 15.550781 18.707031 15.550781 18.71875 L 15.554688 18.722656 L 15.554688 18.726562 C 15.554688 18.738281 15.554688 18.746094 15.554688 18.757812 C 15.566406 25.679688 19.769531 27.25 20.125 27.367188 L 20.246094 27.367188 C 20.277344 26.824219 20.378906 26.070312 20.476562 25.339844 C 20.542969 24.832031 20.609375 24.335938 20.652344 23.921875 L 21.21875 23.921875 C 21.402344 21.378906 21.589844 18.839844 21.777344 16.300781 L 21.777344 16.296875 C 22.015625 13.050781 22.253906 9.800781 22.484375 6.539062 L 7.589844 6.539062 C 7.546875 6.546875 7.550781 6.617188 7.554688 6.6875 Z M 14.96875 10.367188 Z M 14.96875 10.367188 " fill-opacity="1" fill-rule="evenodd"/></svg>